<?xml version="1.0" encoding="UTF-8" standalone="no"?>
<svg
   viewBox="0 0 500 500"
   fill-rule="evenodd"
   version="1.1"
   xmlns="http://www.w3.org/2000/svg"
   xmlns:svg="http://www.w3.org/2000/svg">
  <g>
    <path d="m 153.80469,142.33594 c 0,0 -84.081601,71.54562 -28.78711,177.26758 l 43.21875,-26.14649 c 0,0 -33.96411,-59.9284 18.04687,-113.40625 z m 20.48047,160.83594 -40.42969,30.31835 c 0,0 36.27999,60.75545 120.21094,59.67774 l -1.86133,-50.79492 c 0,0 -47.88514,3.04903 -77.91992,-39.20117 z M 392.60941,136.90227 c 22.2562,27.48426 38.53244,68.17089 38.53244,112.14058 0,100.71938 -81.0999,182.3709 -181.14235,182.3709 -100.04146,0 -181.14135,-81.65152 -181.14135,-182.3709 0,-95.13708 73.22427,-170.96946 155.5991,-179.6434 0,-0.99963 -0.0918,-21.60197 -0.0918,-21.60197 h -21.51809 c -8.2289,0 -11.30573,-4.03206 -11.60276,-11.68072 V 11.682687 C 191.2446,3.258402 194.77635,0 202.84736,0 h 93.76938 c 8.68283,0 11.60374,3.100515 11.60374,11.682687 V 36.11676 c 0,8.74204 -2.11174,11.97972 -11.60374,11.68072 h -21.51908 c 0,0 -0.61675,19.92836 -0.61971,21.60197 27.99839,3.12024 54.37251,12.79678 75.562,27.85826 1.67065,-5.34153 9.28689,-21.04176 17.60247,-29.46773 19.78134,6.19412 46.4357,30.34006 53.70839,48.82671 -3.46374,7.71823 -24.53531,20.28558 -28.74143,20.28558 z m -167.08444,-29.8654 v 139.87844 c 0,11.43895 10.72352,20.71188 23.95054,20.71188 13.22801,0 23.95055,-9.27293 23.95055,-20.71188 0,-11.43993 -0.20624,-128.4395 -0.20624,-139.87844 -13.87141,0.0582 -37.09863,-0.27631 -47.69485,0 z m 43.54832,284.92179 c 34.42441,-4.60835 64.98749,-21.51909 87.18745,-46.19986 -1.17725,-0.94535 -36.02104,-33.61228 -37.00685,-34.48459 -14.39243,16.14497 -34.27047,27.22769 -56.6826,30.2759 0.32071,1.36573 6.129,48.55534 6.502,50.40855 z m 96.11205,-57.15231 c 11.33039,-15.37529 19.69251,-33.09915 24.23967,-52.31405 -0.9197,-0.26841 -47.6682,-11.82972 -48.90861,-12.04386 -2.915,12.36358 -8.26344,23.77786 -15.5085,33.70207 0.93252,0.76477 38.8719,29.80028 40.17744,30.65584 z m 26.80337,-66.12032 c 0.87825,-6.45859 1.33217,-13.05335 1.33217,-19.75371 0,-6.93126 -0.5003,-13.56154 -1.39533,-19.87705 -1.45059,0.16085 -48.81191,6.80594 -49.82731,6.99048 0.597,4.07547 0.93055,8.3108 0.93055,12.6902 0,4.30441 -0.28914,8.5427 -0.84766,12.69514 0.89206,0.10263 48.30173,7.17698 49.80758,7.25494 z m -2.26766,-51.51278 c -2.28444,-9.91829 -5.48264,-18.92281 -9.08445,-26.93856 -1.78019,0.66905 -44.91899,19.61851 -46.10118,20.21749 2.40088,5.36127 4.52545,11.29784 6.04906,17.71893 1.36672,-0.18157 47.53006,-10.42453 49.13657,-10.99786 z M 375.06218,179.0829 c -3.66694,-6.64805 -7.47005,-12.37838 -10.97614,-17.13474 -2.10385,1.52066 -37.05323,28.47796 -39.6643,30.58972 2.17885,3.15084 4.47513,6.8089 6.67667,10.91792 1.7269,-1.07463 42.64837,-23.28052 43.96377,-24.3729 z m -55.1501,7.21151 37.90089,-32.25839 -7.74635,-8.44994 -36.921,33.32808 z" />
  </g>
</svg>
