<?xml version="1.0" encoding="utf-8"?>
<!DOCTYPE svg PUBLIC "-//W3C//DTD SVG 1.1//EN" "http://www.w3.org/Graphics/SVG/1.1/DTD/svg11.dtd">
<svg version="1.1" viewBox="0 0 500 500" fill-rule="evenodd" xmlns="http://www.w3.org/2000/svg">
  <path d="M153.805 142.336s-84.082 71.546-28.787 177.268l43.218-26.147s-33.964-59.928 18.047-113.406zm20.48 160.836-40.43 30.318s36.28 60.756 120.211 59.678l-1.86-50.795s-47.886 3.05-77.92-39.201zm218.324-166.27c22.257 27.485 38.533 68.171 38.533 112.14 0 100.72-81.1 182.372-181.142 182.372S68.858 349.762 68.858 249.043c0-95.137 73.224-170.97 155.6-179.644 0-1-.093-21.602-.093-21.602h-21.518c-8.229 0-11.305-4.032-11.602-11.68V11.683C191.245 3.258 194.776 0 202.847 0h93.77c8.683 0 11.603 3.1 11.603 11.683v24.434c0 8.742-2.111 11.98-11.603 11.68h-21.52s-.616 19.929-.619 21.602c27.998 3.12 54.372 12.797 75.562 27.859 1.67-5.342 9.287-21.042 17.602-29.468 19.782 6.194 46.436 30.34 53.709 48.827-3.464 7.718-24.535 20.285-28.742 20.285zm-167.084-29.865v139.878c0 11.44 10.723 20.712 23.95 20.712 13.229 0 23.951-9.273 23.951-20.712 0-11.44-.206-128.44-.206-139.878-13.872.058-37.099-.276-47.695 0zm43.548 284.922c34.425-4.609 64.988-21.52 87.188-46.2-1.178-.946-36.021-33.612-37.007-34.485-14.393 16.145-34.27 27.228-56.683 30.276.321 1.366 6.13 48.555 6.502 50.409zm96.112-57.153a144.082 144.082 0 0 0 24.24-52.314c-.92-.268-47.668-11.83-48.909-12.044a93.544 93.544 0 0 1-15.508 33.703c.932.764 38.872 29.8 40.177 30.655zm26.804-66.12a146.555 146.555 0 0 0 1.332-19.754c0-6.93-.5-13.561-1.395-19.877-1.451.161-48.812 6.806-49.828 6.99.597 4.076.93 8.312.93 12.691 0 4.304-.288 8.543-.847 12.695.892.103 48.302 7.177 49.808 7.255zm-2.268-51.513c-2.284-9.918-5.483-18.923-9.084-26.938-1.78.669-44.92 19.618-46.102 20.217 2.401 5.361 4.526 11.298 6.05 17.72 1.366-.182 47.53-10.425 49.136-10.999zm-14.659-38.09a155.542 155.542 0 0 0-10.976-17.135c-2.104 1.52-37.053 28.478-39.664 30.59a113.43 113.43 0 0 1 6.676 10.918c1.727-1.075 42.649-23.28 43.964-24.373zm-55.15 7.211 37.901-32.258-7.746-8.45-36.921 33.328z"/>
</svg>
